# xmcd
#
# Track frame offsets:
# 202
# 11200
# 27724
# 38077
# 56461
# 67410
# 80015
# 91729
# 106062
# 118949
# 131792
# 145693
# 158433
# 173491
# 188334
# 202023
# 218017
# 234667
#
# Disc length: 3381 seconds
#
#
# Revision: 0
# Processed by: cddbd v1.5.1PL0 Copyright (c) Steve Scherf et al.
# Submitted via: FreeRIP 2.941 
#
DISCID=f60d3312
DTITLE=Reader's Digest Music - Country Roads Disk 3
DYEAR=2005
DGENRE=Country
TTITLE0=King Of The Road
TTITLE1=The City Of New Orleans
TTITLE2=Six Days On The Road
TTITLE3=Where The Arkansas River Leaves Oklahoma
TTITLE4=Red River Valley
TTITLE5=I'm Movin' On
TTITLE6=Wabash Cannon Ball
TTITLE7=The Streets Of Laredo
TTITLE8=(Get Your Kicks On) Route 66
TTITLE9=I've Been Everywhere
TTITLE10=Country Boy (You've Got Your Feet In L.A.)
TTITLE11=Detroit City
TTITLE12=The Battle Of New Orleans
TTITLE13=Luckenbach, Texas (back To The Basics Of Love)
TTITLE14=Saginaw, Michigan
TTITLE15=She Came From Fort Worth
TTITLE16=Denver
TTITLE17=El Paso City
EXTD=
EXTT0=
EXTT1=
EXTT2=
EXTT3=
EXTT4=
EXTT5=
EXTT6=
EXTT7=
EXTT8=
EXTT9=
EXTT10=
EXTT11=
EXTT12=
EXTT13=
EXTT14=
EXTT15=
EXTT16=
EXTT17=
PLAYORDER=
